<?xml version="1.0" standalone="no"?>
<!DOCTYPE svg PUBLIC "-//W3C//DTD SVG 20010904//EN"
 "http://www.w3.org/TR/2001/REC-SVG-20010904/DTD/svg10.dtd">
<svg version="1.0" xmlns="http://www.w3.org/2000/svg"
 width="616.000000pt" height="616.000000pt" viewBox="0 0 616.000000 616.000000"
 preserveAspectRatio="xMidYMid meet">
<metadata>
Created by potrace 1.11, written by Peter Selinger 2001-2013
</metadata>
<g transform="translate(0.000000,616.000000) scale(0.100000,-0.100000)"
fill="#000000" stroke="none">
<path d="M172 6148 c-9 -9 -12 -669 -12 -2910 0 -2749 1 -2898 17 -2906 24
-13 5782 -13 5806 0 16 8 17 157 17 2906 0 2241 -3 2901 -12 2910 -17 17
-5799 17 -5816 0z m418 -68 c81 -1 239 -2 255 -2 6 1 64 1 130 1 66 -1 134 0
150 0 17 0 66 0 110 0 44 -1 85 -1 90 -1 6 1 64 1 130 1 66 -1 134 0 150 0 17
0 66 0 110 0 44 -1 85 -1 90 -1 6 1 64 1 130 1 66 -1 134 0 150 0 17 0 66 0
110 0 44 -1 85 -1 90 -1 6 1 64 1 130 1 66 -1 134 0 150 0 17 0 66 0 110 0 44
-1 85 -1 90 -1 6 1 64 1 130 1 66 -1 134 0 150 0 17 0 66 0 110 0 44 -1 85 -1
90 -1 6 1 64 1 130 1 66 -1 134 0 150 0 17 0 66 0 110 0 44 -1 85 -1 90 -1 6
1 64 1 130 1 66 -1 134 0 150 0 17 0 66 0 110 0 44 -1 85 -1 90 -1 6 1 64 1
130 1 66 -1 134 0 150 0 17 0 66 0 110 0 44 -1 85 -1 90 -1 6 1 64 1 130 1 66
-1 134 0 150 0 17 0 66 0 110 0 44 -1 85 -1 90 -1 11 1 237 1 275 0 14 0 36 1
50 2 23 1 182 2 348 1 35 0 67 -3 72 -6 5 -3 9 -21 8 -39 -1 -18 2 -38 6 -44
3 -6 2 -13 -4 -17 -6 -4 -8 -10 -5 -15 3 -5 5 -55 5 -112 0 -98 1 -282 2 -303
0 -5 -1 -23 -1 -40 -1 -16 -2 -77 -2 -135 1 -58 0 -158 -2 -223 -1 -64 1 -117
4 -117 3 0 3 -17 0 -37 -6 -34 -9 -38 -38 -38 -30 0 -84 -44 -271 -223 -27
-26 -106 -101 -176 -167 -71 -66 -150 -140 -176 -165 -26 -25 -107 -101 -180
-170 -73 -69 -152 -143 -175 -165 -42 -39 -224 -211 -378 -356 -43 -41 -122
-115 -175 -166 l-97 -91 -3 752 -2 753 -223 1 c-122 0 -231 -1 -242 -3 -20 -4
-20 -12 -20 -1782 0 -1571 2 -1779 15 -1783 8 -3 116 -5 240 -5 l225 1 5 857
5 856 55 -53 c30 -30 405 -405 832 -834 l778 -779 -1 -116 c0 -64 2 -121 6
-126 3 -5 2 -12 -2 -14 -5 -3 -6 -67 -3 -142 3 -75 2 -139 -3 -142 -4 -2 -5
-8 -2 -13 6 -10 9 -299 3 -305 -2 -3 -2 -28 1 -57 3 -29 5 -67 3 -84 l-3 -32
-70 2 c-38 0 -69 -2 -69 -6 0 -4 -7 -5 -15 -1 -24 8 -206 9 -212 0 -2 -4 -9
-4 -15 0 -16 9 -219 10 -225 0 -2 -4 -9 -4 -16 0 -14 8 -371 8 -385 -1 -6 -3
-13 -3 -15 1 -6 10 -209 9 -225 0 -6 -4 -13 -4 -15 0 -6 10 -140 8 -156 -1 -6
-4 -11 -4 -11 1 0 9 -207 9 -216 0 -4 -4 -11 -4 -17 0 -15 9 -218 9 -224 0 -2
-4 -9 -4 -15 -1 -16 10 -229 11 -235 1 -2 -4 -9 -4 -15 0 -16 9 -139 10 -145
0 -2 -4 -9 -4 -15 0 -16 9 -139 10 -145 0 -2 -4 -9 -4 -16 0 -14 9 -130 9
-144 0 -7 -4 -14 -4 -17 1 -3 5 -20 7 -38 6 -48 -4 -109 -5 -226 -2 -57 2
-106 0 -109 -5 -2 -4 -9 -4 -15 0 -16 9 -219 10 -225 0 -2 -4 -9 -4 -15 0 -16
9 -219 10 -225 0 -2 -4 -9 -4 -15 0 -16 9 -219 10 -225 0 -2 -4 -9 -4 -15 -1
-16 10 -309 11 -315 1 -2 -4 -9 -4 -15 0 -16 9 -139 10 -145 0 -2 -4 -9 -4
-15 0 -16 9 -139 10 -145 0 -2 -4 -9 -4 -15 0 -16 9 -139 10 -145 0 -2 -4 -9
-4 -15 -1 -14 9 -282 9 -296 0 -6 -3 -13 -3 -15 1 -6 10 -209 9 -225 0 -6 -4
-13 -4 -15 0 -6 10 -140 8 -156 -1 -6 -4 -11 -4 -11 1 0 10 -202 9 -218 0 -6
-4 -13 -4 -15 0 -3 5 -42 8 -86 7 -45 -1 -84 3 -87 7 -3 5 -5 51 -4 101 0 51
0 134 0 183 -1 50 -1 95 -1 100 0 6 0 219 0 475 0 256 0 472 0 480 0 8 0 224
0 480 0 256 0 472 0 480 0 8 0 224 0 480 0 256 0 472 0 480 0 8 0 224 0 480 0
256 0 472 0 480 0 8 0 224 0 480 0 256 0 472 0 480 0 8 0 122 1 252 l1 237
126 0 c69 0 128 3 131 5 3 3 8 4 11 1 4 -2 40 -4 81 -5z m5330 -1722 c0 -40 1
-81 1 -90 0 -10 0 -38 0 -63 0 -25 -1 -71 0 -102 0 -32 -1 -121 -1 -199 -1
-77 0 -145 1 -150 1 -5 1 -13 0 -19 -5 -26 -1 -297 4 -305 3 -5 1 -11 -5 -15
-6 -4 -8 -10 -5 -15 3 -5 5 -55 5 -112 0 -57 0 -146 0 -198 1 -52 1 -101 1
-107 0 -28 -1 -106 0 -160 0 -32 -1 -121 -1 -199 -1 -77 0 -145 1 -150 1 -5 1
-13 0 -19 -1 -5 -1 -75 -1 -155 2 -161 1 -213 -4 -218 -5 -4 -1200 1195 -1204
1208 -2 5 18 30 45 54 26 25 71 66 99 93 28 26 109 103 180 170 71 66 149 140
174 163 52 48 263 247 324 305 24 22 93 87 156 145 62 58 137 129 167 158 30
28 57 52 59 52 2 0 4 -33 4 -72z"/>
<path d="M667 4946 c-3 -10 -1 -3525 2 -3551 1 -7 386 -9 1138 -9 626 1 1143
2 1149 3 16 1 16 401 0 402 -6 0 -415 1 -909 1 l-897 1 2 646 3 646 840 2
c462 1 843 2 848 2 4 1 6 92 5 203 l-3 202 -847 0 -848 0 0 528 0 528 885 0
c701 0 885 3 886 13 1 6 2 98 3 203 l1 191 -1127 0 c-802 0 -1128 -3 -1131
-11z"/>
</g>
</svg>
